<?xml version='1.0' encoding='utf-8'?>
<svg xmlns="http://www.w3.org/2000/svg" width="384" height="384" viewBox="0 0 384 384" fill="none"><g transform="translate(108.073009 100.147124) scale(0.621681416)"><path d="M98.2995 249.57H123.445C123.937 249.57 124.412 249.963 124.412 250.537V283.867C124.412 291.363 118.376 297.415 110.864 297.415C103.352 297.415 97.3154 291.379 97.3154 283.867V250.537C97.3154 250.045 97.7092 249.57 98.2833 249.57H98.2995Z" fill="#FFEDC4" />
<path d="M172.832 250.537V283.867C172.832 291.363 166.796 297.415 159.284 297.415C151.771 297.415 145.735 291.379 145.735 283.867V250.537C145.735 250.045 146.129 249.57 146.703 249.57H171.848C172.34 249.57 172.816 249.963 172.816 250.537H172.832Z" fill="#FFEDC4" />
<path d="M95.0848 194.031L65.9541 210.794C57.4741 215.665 56.0143 227.459 63.4282 233.79C63.7234 233.987 63.9202 234.184 64.2155 234.479C64.5107 234.676 64.806 234.872 65.0849 235.069C73.3681 240.334 84.4725 235.66 86.818 226.294L95.0029 194.047H95.1012L95.0848 194.031Z" fill="#FFEDC4" />
<path d="M175.276 194.031L183.461 226.278C185.905 235.627 197.009 240.302 205.194 235.053C205.489 234.856 205.784 234.66 206.063 234.463C206.359 234.266 206.654 234.069 206.851 233.774C214.346 227.442 212.788 215.551 204.325 210.778L175.194 194.014H175.292L175.276 194.031Z" fill="#FFEDC4" />
<path d="M183.658 217.994C181.608 209.514 179.279 202.593 177.425 197.918H177.327H135.238H93.1496H93.0511C91.1976 202.593 88.8685 209.514 86.8182 217.994C82.816 234.659 80.29 245.075 84.7679 256.294C88.7701 266.234 96.266 271.794 98.7919 273.533C110.29 281.816 123.051 281.816 135.238 281.718C147.327 281.816 160.186 281.718 171.684 273.533C174.21 271.778 181.722 266.218 185.708 256.294C190.186 245.091 187.562 234.659 183.658 217.994Z" fill="#FFEDC4" />
<path d="M135.222 197.934V227.163C139.7 226.966 143.21 226.097 144.768 225.605C158.415 221.898 166.501 211.958 174.095 202.51C175.358 201.05 176.539 199.492 177.802 197.934H135.222Z" fill="#FFFBF3" />
<path d="M96.348 202.509C103.942 211.957 112.029 221.897 125.676 225.604C127.332 226.096 130.744 226.965 135.222 227.162V198.031H92.7231C93.8713 199.557 95.1014 200.984 96.348 202.509Z" fill="#FFFBF3" />
<path d="M92.6411 198.032H92.7236C92.7236 198.032 92.6741 197.967 92.6411 197.934V198.032Z" fill="#FFFBF3" />
<path d="M241.312 117.103C240.82 109.985 237.408 75.474 207.884 49.837C184.018 28.9732 157.315 26.4308 148.639 25.9552L140.257 25.6599H135.287C135.287 25.6599 135.238 25.6599 135.205 25.6599C135.172 25.6599 135.156 25.6599 135.123 25.6599H130.153L121.771 25.9552C113.095 26.4472 86.4078 28.9732 62.526 49.8206C33.0016 75.4412 29.5899 109.935 29.0979 117.054C26.0798 122.418 22.0777 131.865 22.1761 143.856C22.3729 161.095 31.1481 177.284 43.6139 186.141C50.831 191.308 59.1143 193.834 60.2788 194.227C66.3149 196.081 72.269 196.753 75.8611 197.147C78.5839 197.442 81.2247 197.639 83.7507 197.836H135.074V197.934H186.627C189.153 197.737 191.793 197.541 194.516 197.245C198.125 196.852 204.062 196.179 210.098 194.326C211.263 193.932 219.546 191.406 226.763 186.239C239.229 177.366 248.004 161.177 248.201 143.921C248.299 131.931 244.297 122.467 241.279 117.103H241.312Z" fill="#FFEDC4" />
<path d="M35.2489 89.5797C39.9236 77.1139 48.1084 62.4993 62.5261 49.9187C71.1045 42.4228 80.0602 37.3545 88.4419 33.8444L86.0963 26.9225C74.7951 -6.11188 29.4917 -9.622 13.2205 21.2637L4.06792 38.6011C-7.62699 60.6295 7.18435 87.4146 32.034 89.3665L35.3473 89.6617L35.2489 89.5633V89.5797Z" fill="#FFEDC4" />
<path d="M42.1707 141.116C41.4818 142.281 40.1205 142.674 38.9559 142.084C34.1828 139.64 29.016 137.803 23.7509 136.72C18.092 135.556 12.4497 135.162 6.69244 135.556C5.42945 135.556 4.24842 134.768 4.06799 133.407C3.96958 132.045 4.8553 130.881 6.2167 130.782C12.4496 130.29 18.5842 130.782 24.7351 132.045C30.4759 133.21 36.0363 135.26 41.203 137.885C42.3676 138.475 42.8596 140.033 42.1707 141.198V141.1V141.116Z" fill="#DF851D" />
<path d="M5.42971 159.043C4.83923 157.78 5.42975 156.321 6.59432 155.829C11.1706 153.877 15.9437 152.614 20.8152 152.023C25.3914 151.433 29.9677 151.531 34.5604 152.023C35.9218 152.22 36.9059 153.483 36.6107 154.844C36.4139 156.107 35.1508 156.993 33.8878 156.796C29.7052 156.206 25.5062 156.206 21.4221 156.796C16.9442 157.387 12.6467 158.453 8.46412 160.208C7.29955 160.7 5.93821 160.208 5.44613 159.043H5.42971Z" fill="#DF851D" />
<path d="M228.174 141.116C227.485 139.952 227.879 138.394 229.142 137.803C234.308 135.08 239.852 133.128 245.61 131.964C251.646 130.701 257.895 130.307 264.128 130.701C265.489 130.701 266.473 132.062 266.277 133.325C266.178 134.588 264.915 135.572 263.652 135.474C257.911 135.08 252.253 135.474 246.594 136.638C241.329 137.705 236.162 139.558 231.389 142.002C230.224 142.593 228.764 142.199 228.174 141.034V141.133V141.116Z" fill="#DF851D" />
<path d="M264.915 159.043C264.423 160.208 263.062 160.7 261.897 160.208C257.797 158.453 253.417 157.288 248.939 156.796C244.757 156.304 240.558 156.304 236.474 156.796C235.211 156.993 233.948 156.107 233.751 154.844C233.456 153.483 234.44 152.22 235.801 152.023C240.377 151.433 244.954 151.334 249.546 152.023C254.418 152.614 259.191 153.877 263.767 155.829C265.03 156.321 265.522 157.879 264.932 159.043H264.915Z" fill="#DF851D" />
<path d="M4.06792 38.5188L12.7449 22.1493C22.291 16.31 35.2489 17.6714 43.1384 26.053C45.9597 29.0711 47.8131 32.8764 48.7973 36.8622L49.6666 40.2739C47.7147 39.3062 45.566 38.7157 43.2369 38.7157C35.4457 38.7157 29.2128 45.047 29.2128 52.7397C29.2128 60.4324 35.5441 66.7638 43.2369 66.7638C44.8935 66.7638 46.4517 66.4685 47.9115 65.9765C42.1707 73.9644 38.1685 82.1492 35.3473 89.5631L32.034 89.2679C7.18436 87.316 -7.62699 60.5309 4.06792 38.5024V38.5188Z" fill="#EE9840" />
<path d="M234.801 89.5797C230.126 77.1139 221.941 62.4993 207.524 49.9187C198.945 42.4228 189.99 37.3545 181.608 33.8444L183.954 26.9225C195.255 -6.11188 240.558 -9.622 256.829 21.2637L265.982 38.6011C277.677 60.6295 262.865 87.4146 238.016 89.3665L234.702 89.6617L234.801 89.5633V89.5797Z" fill="#FFEDC4" />
<path d="M265.982 38.5188L257.305 22.1493C247.759 16.31 234.801 17.6714 226.911 26.053C224.09 29.0711 222.237 32.8764 221.253 36.8622L220.383 40.2739C222.335 39.3062 224.484 38.7157 226.813 38.7157C234.604 38.7157 240.837 45.047 240.837 52.7397C240.837 60.4324 234.506 66.7638 226.813 66.7638C225.156 66.7638 223.598 66.4685 222.138 65.9765C227.879 73.9644 231.881 82.1492 234.703 89.5631L238.016 89.2679C262.866 87.316 277.677 60.5309 265.982 38.5024V38.5188Z" fill="#EE9840" />
<path d="M230.585 153.09C229.486 132.735 208.606 116.25 183.937 116.25C178.688 116.25 173.702 117.005 169.109 118.366C161.416 110.919 150.427 105.868 138.191 104.834C136.206 104.67 134.221 104.67 132.253 104.834C120.017 105.851 109.027 110.903 101.334 118.366C96.7418 117.005 91.7554 116.25 86.5067 116.25C61.8375 116.25 40.9572 132.751 39.8582 153.09C39.8254 153.697 39.8091 154.287 39.8091 154.878C39.8583 167.032 48.2891 177.513 59.8528 181.237C75.9107 186.403 103.631 189.815 135.14 189.815C135.156 189.815 135.189 189.815 135.205 189.815C135.222 189.815 135.255 189.815 135.271 189.815C166.796 189.815 194.5 186.403 210.558 181.237C222.138 177.513 230.552 167.049 230.602 154.878C230.602 154.287 230.602 153.697 230.552 153.09H230.585Z" fill="#FFFBF3" />
<path d="M78.2229 134.49C90.6888 134.49 100.924 124.353 100.924 111.789C100.924 99.2248 90.7872 89.0881 78.2229 89.0881C65.6587 89.0881 55.522 99.2248 55.522 111.789C55.522 124.353 65.6587 134.49 78.2229 134.49Z" fill="#8E3200" />
<path d="M78.2232 114.61C85.8176 114.61 91.9684 110.132 91.9684 104.67C91.9684 99.2081 85.834 94.7302 78.2232 94.7302C70.6125 94.7302 64.478 99.2081 64.478 104.67C64.478 110.132 70.6125 114.61 78.2232 114.61Z" fill="#FFFAF2" />
<path opacity="0.4" d="M78.2232 130.602C83.964 130.602 88.7535 127.584 88.7535 123.877C88.7535 120.17 84.0788 117.152 78.2232 117.152C72.3675 117.152 67.6929 120.17 67.6929 123.877C67.6929 127.584 72.3675 130.602 78.2232 130.602Z" fill="#FBE9C2" />
<path d="M214.839 111.789C214.839 99.3232 204.702 89.0881 192.138 89.0881C179.574 89.0881 169.437 99.2248 169.437 111.789C169.437 124.353 179.574 134.49 192.138 134.49C204.702 134.49 214.839 124.353 214.839 111.789Z" fill="#8E3200" />
<path d="M205.867 104.686C205.867 99.2242 199.732 94.7463 192.122 94.7463C184.511 94.7463 178.376 99.2242 178.376 104.686C178.376 110.148 184.511 114.626 192.122 114.626C199.732 114.626 205.867 110.148 205.867 104.686Z" fill="#FFFAF2" />
<path opacity="0.4" d="M202.652 123.877C202.652 120.17 197.977 117.152 192.122 117.152C186.266 117.152 181.591 120.17 181.591 123.877C181.591 127.584 186.266 130.602 192.122 130.602C197.977 130.602 202.652 127.584 202.652 123.877Z" fill="#FBE9C2" />
<path d="M193.401 152.32C192.811 151.631 191.843 151.352 190.875 152.024C184.642 156.404 175.67 158.946 166.124 158.946C156.578 158.946 142.832 154.845 137.092 148.137C136.599 147.546 135.927 147.268 135.238 147.268C134.549 147.268 133.778 147.563 133.385 148.137C127.726 154.763 113.899 158.946 104.352 158.946C94.8062 158.946 85.834 156.42 79.6011 152.024C78.6334 151.335 77.6493 151.729 77.0752 152.32C76.3863 153.107 76.4847 154.075 77.0752 154.845C83.3081 161.078 94.4126 164.785 105.812 164.785C117.212 164.785 127.923 161.177 134.172 155.239C134.467 155.042 134.762 154.845 135.041 154.845C135.32 154.845 135.73 154.944 135.911 155.239C142.242 161.275 152.772 164.785 164.27 164.785C175.768 164.785 186.873 161.078 193.007 154.845C193.696 154.157 193.795 153.09 193.007 152.32H193.401Z" fill="#B5510A" />
<path d="M79.6016 76.7041L72.7947 74.4078C69.4814 73.2924 67.6936 69.7003 68.8089 66.3706C69.9243 63.0574 73.5164 61.2695 76.846 62.3849L83.6531 64.6812C86.9664 65.7966 88.7542 69.3887 87.6388 72.7184C86.5235 76.0316 82.9313 77.8195 79.6016 76.7041Z" fill="#EE9841" />
<path d="M178.639 72.7184C177.524 69.4051 179.311 65.7966 182.625 64.6812L189.432 62.3849C192.745 61.2695 196.337 63.0574 197.469 66.3706C198.584 69.7003 196.796 73.2924 193.483 74.4078L186.676 76.7041C183.363 77.8195 179.771 76.0316 178.639 72.7184Z" fill="#EE9841" />
</g></svg>