<svg preserveAspectRatio="none" overflow="visible" style="display: block;" width="24.5372" height="23.7682" viewBox="0 0 24.5372 23.7682" fill="none" xmlns="http://www.w3.org/2000/svg">
<g id="Group 80">
<path id="Vector" d="M24.5348 18.5453C24.5348 18.1681 24.5203 17.786 24.4937 17.4013C23.9904 10.5174 18.9315 5.05969 12.796 4.76995C5.77987 4.43774 0 10.7397 0 18.5578C0 18.5753 0 18.5953 0 18.6128C0.00967747 21.4727 2.11453 23.7682 4.6597 23.7682H19.8775C22.4445 23.7682 24.5396 21.4328 24.5372 18.5453H24.5348Z" fill="#FFCA55"/>
<path id="Vector_2" d="M14.42 5.30535H10.1567C9.72782 5.30535 9.33207 5.08429 9.13301 4.73214L7.33197 1.57824C7.08467 0.884224 7.48363 0 8.35571 0H16.0375C16.9593 0 17.3638 0.884224 17.0322 1.57824L15.3869 4.81954C15.1736 5.12285 14.8086 5.30535 14.4176 5.30535H14.42Z" fill="#754C24"/>
<path id="Vector_3" d="M15.1501 16.3411C15.1415 16.2898 15.1296 16.2385 15.1092 16.1872L12.8624 10.5855C12.6273 9.99825 11.7176 9.99825 11.4826 10.5855L9.23574 16.1872C9.2153 16.2385 9.20168 16.2898 9.19486 16.3411C9.01771 16.7656 8.94275 17.236 9.00749 17.7295C9.17953 19.0632 10.3617 20.1315 11.825 20.273C13.743 20.4587 15.3613 19.0915 15.3613 17.3811C15.3613 17.015 15.2863 16.6647 15.1518 16.3411H15.1501Z" fill="white"/>
</g>
</svg>
