<svg width="121" height="129" viewBox="0 0 121 129" fill="none" xmlns="http://www.w3.org/2000/svg">
<g opacity="0.8">
<ellipse cx="41.5" cy="18" rx="41.5" ry="18" transform="matrix(-0.999837 -0.0180492 -0.0180492 0.999837 100.027 92.1465)" fill="#E8E8E8"/>
<path d="M41.4997 103.109C64.419 113.421 89.9654 106.297 98.5592 87.196C107.153 68.0955 95.5399 44.2519 72.6206 33.94C49.7012 23.628 24.1548 30.7526 15.561 49.8532C6.96723 68.9537 18.5804 92.7973 41.4997 103.109Z" fill="#FFCA54"/>
<g clip-path="url(#clip_home_bag_right)">
<path d="M102 79.4311C104.44 69.673 103.158 59.8421 99.0421 51.3712C99.482 60.5754 97.5947 73.5745 86.2476 83.8993C83.5422 86.3573 67.5504 100.919 43.9126 96.7876C34.5053 95.1418 27.1727 91.1137 22.2135 87.5656C27.6698 98.169 37.6077 106.519 50.2523 109.68C73.2238 115.424 96.3945 101.881 102.007 79.4329L102 79.4311Z" fill="#E79749" fill-opacity="0.45"/>
</g>
<path d="M71.3974 51.7396L62.0771 47.5461C61.3887 38.4194 57.4979 27.8591 56.8096 18.7324L94.4909 35.6861C87.6405 41.421 78.2417 46.0019 71.3974 51.7396Z" fill="url(#paint0_home_bag_right)"/>
<path d="M72.9598 33.2216C83.5024 37.965 93.5138 38.5544 95.3208 34.5382C97.1278 30.522 90.0462 23.4209 79.5035 18.6775C68.9609 13.9341 58.9496 13.3447 57.1426 17.3609C55.3356 21.3771 62.4172 28.4782 72.9598 33.2216Z" fill="#FFCA54"/>
<ellipse cx="67.1275" cy="46.9901" rx="7.30967" ry="5.64838" transform="rotate(24.2241 67.1275 46.9901)" fill="#3CC6FF"/>
<ellipse cx="78.9095" cy="49.9139" rx="6.3129" ry="4.98387" transform="rotate(-12.9746 78.9095 49.9139)" fill="#3CC6FF"/>
<ellipse cx="57.3477" cy="39.6701" rx="6.3129" ry="4.98387" transform="rotate(57.6299 57.3477 39.6701)" fill="#3CC6FF"/>
<path d="M57.494 84.6256C57.5218 84.5057 57.5412 84.382 57.5395 84.249L57.3177 69.7061C57.2955 68.1821 55.0417 67.1848 53.899 68.1934L42.987 77.8096C42.8874 77.8978 42.8047 77.9935 42.7388 78.0966C41.8948 78.8178 41.2602 79.7502 40.9497 80.8853C40.1034 83.9499 42.0131 87.5497 45.5036 89.4591C50.0788 91.9625 55.3929 90.7883 57.025 87.0999C57.3743 86.3104 57.5228 85.473 57.4982 84.6275L57.494 84.6256Z" fill="url(#paint1_home_bag_right)"/>
<path d="M65.1358 20.6556L77.9316 23.7972L75.9737 28.1487L65.1358 20.6556Z" fill="#E79749"/>
<path d="M88.7719 31.2888L75.9756 28.1484L77.9335 23.7969L88.7719 31.2888Z" fill="#E79749"/>
<path d="M79.0258 21.3715L81.9786 28.5295L71.7126 23.9106L79.0258 21.3715Z" fill="#E79749"/>
<path d="M74.6607 31.0673L71.7101 23.9102L81.976 28.5291L74.6607 31.0673Z" fill="#E79749"/>
</g>
<defs>
<clipPath id="clip_home_bag_right">
<path d="M41.4997 103.109C64.419 113.421 89.9654 106.297 98.5592 87.196C107.153 68.0955 95.5399 44.2519 72.6206 33.94C49.7012 23.628 24.1548 30.7526 15.561 49.8532C6.96723 68.9537 18.5804 92.7973 41.4997 103.109Z"/>
</clipPath>
<linearGradient id="paint0_home_bag_right" x1="75.6502" y1="27.2093" x2="65.7556" y2="49.2011" gradientUnits="userSpaceOnUse">
<stop stop-color="#FFC14E"/>
<stop offset="0.725962" stop-color="#E28E3D"/>
</linearGradient>
<linearGradient id="paint1_home_bag_right" x1="56.0296" y1="68.0005" x2="46.3495" y2="89.877" gradientUnits="userSpaceOnUse">
<stop stop-color="white"/>
<stop offset="1" stop-color="#F4E5D0"/>
</linearGradient>
</defs>
</svg>
