<svg preserveAspectRatio="none" overflow="visible" style="display: block;" width="88.0005" height="71.4611" viewBox="0 0 88.0005 71.4611" fill="none" xmlns="http://www.w3.org/2000/svg">
<g id="Group 106">
<path id="Union" d="M37.871 2.06068C41.4949 -0.686893 46.505 -0.686893 50.1288 2.06068L83.9658 27.715C91.7121 33.5885 87.5582 45.9424 77.8368 45.9425H77.7548V56.9699C77.7548 64.9731 71.2669 71.4611 63.2636 71.4611H25.1777C17.1745 71.461 10.6865 64.9731 10.6865 56.9699V45.9425H10.163C0.441673 45.9423 -3.71149 33.5884 4.03509 27.715L37.871 2.06068Z" fill="#46CABF"/>
<g id="Group 100">
<path id="Vector" d="M36.7442 45.2088L38.9167 51.1667L31.0557 50.5893C27.9037 50.3587 26.0368 47.1619 27.5144 44.5309C29.5802 40.8533 35.3106 41.2731 36.7463 45.2088H36.7442Z" fill="white"/>
<path id="Vector_2" d="M50.2558 45.2088L48.0834 51.1667L55.9444 50.5893C59.0964 50.3587 60.9633 47.1619 59.4856 44.5309C57.4199 40.8533 51.6895 41.2731 50.2538 45.2088H50.2558Z" fill="white"/>
<path id="Vector_3" d="M45.2876 43.8858L44.1666 43.8455C43.7214 43.8293 43.2763 43.8293 42.8331 43.8455L41.7121 43.8858C35.8787 44.0957 31.0319 48.4786 30.2057 54.2943L29.8207 57.0004C29.2271 61.1775 32.4476 64.9167 36.6407 64.9167H50.359C54.5521 64.9167 57.7746 61.1775 57.179 57.0004L56.794 54.2943C55.9678 48.4807 51.121 44.0957 45.2876 43.8858Z" fill="white"/>
</g>
</g>
</svg>
